<?xml version="1.0" encoding="UTF-8"?>
<svg width="295px" height="141px" viewBox="0 0 295 141" version="1.1" xmlns="http://www.w3.org/2000/svg" xmlns:xlink="http://www.w3.org/1999/xlink">
    <title>BHS</title>
    <g id="Page-1" stroke="none" stroke-width="1" fill="none" fill-rule="evenodd">
        <g id="BHS">
            <g id="Group">
                <path d="M32.15,0 C50.03,0 64.62,14.47 64.62,32.37 L64.62,125.99 L0,125.99 L0,32.39 C0,14.52 14.24,0 32.15,0" id="Fill-172" fill="#FFFFFE"></path>
                <g id="Group-188" transform="translate(2.330000, 2.320000)">
                    <path d="M18.58,22.65 C18.58,22.65 28.02,31.45 26.22,41.91 C31.11,34.93 26.23,27.94 24.94,25.96 C23.65,23.99 21.73,22.23 20.78,21.62 C23.61,22.38 31.64,26.01 37.28,35.33 C36.46,29.39 30.23,21.28 24.53,19.75 C20.65,18.7 19.68,19.19 18.73,18.57 C17.79,17.96 17.06,16.4 14.97,12.57 C12.88,8.74 9.43,10.38 6.47,13.7 C7.99,12.64 12.29,9.39 13.33,13.62 C13.43,14.03 13.34,13.86 13.57,14.06 C14.22,14.65 15.52,15.07 16.06,15.65 C17.4,17.07 18.47,18.55 18.32,18.89 C17.96,17.67 17.59,17.05 16.05,15.65 C14.51,14.26 8.55,10.07 2.38,21.12 C5.27,17.46 8.32,14.68 11.87,15.73 C14.19,16.44 15.67,20.24 15.37,21.26 C14.35,21.59 12.41,21.76 10.2,24.61 C7.54,28.05 6.47,32.88 7.58,36.97 C8.68,41.06 9.06,43.01 10.5,44.55 C9.97,43.55 9.95,41.87 9.55,39.92 C8.83,36.36 9.27,32.15 10.83,29.13 C13.24,24.46 16.1,23.82 17.85,23.09 C18.36,22.88 18.24,22.29 18.57,22.63" id="Fill-176" fill="#004C3F"></path>
                    <path d="M44.04,16.28 C41.7,16.02 37.33,15.52 32.62,16.51 C27.41,17.61 23.53,19.99 20.54,22.66 C27.59,18.82 32.51,17.85 39.82,18.03 C40.73,18.05 41.58,18.52 43.49,18.53 C45.14,18.53 46.27,16.54 44.04,16.29" id="Fill-178" fill="#FFFFFE"></path>
                    <path d="M44.04,16.28 C41.7,16.02 37.33,15.52 32.62,16.51 C27.41,17.61 23.53,19.99 20.54,22.66 C27.59,18.82 32.51,17.85 39.82,18.03 C40.73,18.05 41.58,18.52 43.49,18.53 C45.14,18.53 46.27,16.54 44.04,16.29 L44.04,16.28 Z" id="Stroke-180" stroke="#D8127E" stroke-width="0.35"></path>
                    <path d="M1.77635684e-15,30.07 C1.77635684e-15,13.46 13.21,0 29.82,0 C46.43,0 59.97,13.44 59.97,30.05 L59.97,121.35 L1.77635684e-15,121.35 L1.77635684e-15,30.07 Z M29.82,1.16 C45.79,1.16 58.81,14.08 58.81,30.04 L58.81,120.19 L1.15,120.19 L1.15,30.07 C1.15,14.09 13.87,1.16 29.82,1.16 Z" id="Fill-182" fill="#1A1919"></path>
                    <path d="M1.77635684e-15,30.07 C1.77635684e-15,13.46 13.21,0 29.82,0 C46.43,0 59.97,13.44 59.97,30.05 L59.97,121.35 L1.77635684e-15,121.35 L1.77635684e-15,30.07 Z M29.82,1.16 C45.79,1.16 58.81,14.08 58.81,30.04 L58.81,120.19 L1.15,120.19 L1.15,30.07 C1.15,14.09 13.87,1.16 29.82,1.16 Z" id="Stroke-184" stroke="#D8127E" stroke-width="0.09"></path>
                    <path d="M36.38,112.14 C36.38,115.61 33.56,118.42 30.09,118.42 C26.62,118.42 23.82,115.61 23.82,112.14 L23.82,73.92 C23.82,70.46 26.63,67.64 30.09,67.64 C33.55,67.64 36.37,70.46 36.37,73.92 L36.37,112.14 L36.38,112.14 Z" id="Fill-186" fill="#004C3F"></path>
                </g>
                <g id="Group-191" transform="translate(26.574960, 46.240000)" fill="#FFFFFE">
                    <path d="M1.54503969,40.85 C1.51503969,42.8 4.50503969,48.7 5.51503969,50.7 C6.08503969,51.85 6.57503969,52.95 6.05503969,54.42 C5.70503969,55.42 5.02503969,55.7 4.39503969,55.58 C4.86503969,56.07 5.67503969,56.08 6.05503969,54.74 C6.55503969,52.98 6.79503969,51.45 7.61503969,47.42 C8.78503969,41.75 9.43503969,35.59 9.65503969,32.62 C8.00503969,34.64 5.40503969,36.8 6.21503969,39.07 C6.49503969,39.88 7.11503969,39.25 6.87503969,39.06 C6.28503969,38.56 7.03503969,37.68 7.62503969,38.18 C7.66503969,38.21 7.70503969,38.25 7.73503969,38.28 C7.87503969,38.32 8.00503969,38.41 8.09503969,38.57 C9.53503969,41.28 5.16503969,43.99 4.04503969,40.04 C3.53503969,38.26 3.30503969,36.71 2.45503969,32.64 C0.965039685,25.42 0.315039685,17.43 0.305039685,16.04 C0.175039685,13.79 0.275039685,11.61 0.305039685,10.73 C0.345039685,9.68 0.825039685,9 1.75503969,9 C2.68503969,9 3.58503969,10.18 2.92503969,11.33 C2.54503969,12.01 1.53503969,11.44 1.91503969,10.76 C2.13503969,10.38 1.80503969,10.15 1.75503969,10.15 C1.68503969,10.15 1.60503969,10.19 1.59503969,10.2 C1.24503969,10.62 1.45503969,15.92 1.46503969,16.02 L1.46503969,16.13 C1.55503969,16.23 1.60503969,16.36 1.59503969,16.52 C1.55503969,18.77 5.34503969,23.54 6.46503969,25.98 C6.97503969,27.1 6.53503969,29.44 4.84503969,29.11 C5.27503969,29.77 6.22503969,29.96 6.65503969,28.45 C7.15503969,26.69 7.39503969,25.16 8.21503969,21.14 C9.68503969,14.01 10.3350397,6.12 10.3450397,4.74 C10.3650397,4.41 10.5150397,1.57 10.2150397,1.2 C10.2050397,1.2 10.1250397,1.15 10.0550397,1.15 C9.99503969,1.15 9.67503969,1.38 9.88503969,1.76 C10.2650397,2.44 9.25503969,3 8.88503969,2.33 C8.23503969,1.18 9.11503969,0 10.0550397,0 C12.0550397,0 11.5750397,3.54 11.5050397,4.78 C11.4850397,6.21 10.8350397,14.17 9.35503969,21.37 C8.76503969,24.23 8.47503969,25.84 8.17503969,27.17 C8.40503969,26.64 8.91503969,26.27 9.44503969,26.27 C11.4450397,26.27 10.9650397,29.82 10.8950397,31.06 C10.8750397,32.48 10.2250397,40.45 8.74503969,47.65 C7.90503969,51.72 7.66503969,53.27 7.16503969,55.05 C6.04503969,58.99 1.67503969,56.29 3.11503969,53.58 C3.16503969,53.48 3.23503969,53.41 3.30503969,53.36 C3.37503969,53.28 3.44503969,53.21 3.53503969,53.13 C4.12503969,52.63 4.87503969,53.52 4.28503969,54.02 C4.05503969,54.21 4.66503969,54.84 4.95503969,54.03 C5.29503969,53.06 5.02503969,52.34 4.46503969,51.22 C3.81503969,49.94 2.57503969,47.5 1.62503969,45.22 C1.89503969,48.42 2.52503969,53.96 3.59503969,59.09 C4.42503969,63.11 4.65503969,64.65 5.15503969,66.41 C5.54503969,67.81 6.41503969,67.73 6.87503969,67.18 C6.21503969,67.36 5.47503969,67.11 5.09503969,66.04 C4.57503969,64.58 5.02503969,63.47 5.64503969,62.31 C8.58503969,56.87 10.0150397,53.29 10.1250397,51.49 C10.1250397,51.36 10.1650397,51.26 10.2150397,51.17 C10.3650397,49.7 10.4450397,48.61 10.4250397,48.13 C10.4150397,47.75 10.2950397,47.58 10.2550397,47.53 C10.2350397,47.53 10.1950397,47.52 10.1250397,47.52 C10.0750397,47.52 9.74503969,47.74 9.96503969,48.13 C10.3450397,48.8 9.33503969,49.37 8.95503969,48.7 C8.30503969,47.54 9.18503969,46.36 10.1250397,46.36 C11.0650397,46.36 11.5350397,47.04 11.5750397,48.09 C11.6150397,49.02 11.0050397,54.37 10.7350397,56.58 C10.4050397,59.33 8.70503969,73.59 7.77503969,74.97 C7.34503969,75.62 6.37503969,74.97 6.80503969,74.33 C7.03503969,73.98 7.55503969,71.1 8.12503969,67.36 C7.34503969,68.95 4.82503969,69.59 4.01503969,66.73 C3.50503969,64.95 3.27503969,63.4 2.42503969,59.33 C0.935039685,52.1 0.285039685,44.11 0.275039685,42.73 C0.145039685,40.48 0.245039685,38.29 0.275039685,37.41 C0.315039685,36.36 0.795039685,35.68 1.72503969,35.68 C2.65503969,35.68 3.55503969,36.86 2.89503969,38.02 C2.51503969,38.69 1.50503969,38.12 1.88503969,37.45 C2.10503969,37.07 1.77503969,36.84 1.72503969,36.84 C1.65503969,36.84 1.57503969,36.88 1.56503969,36.89 C1.37503969,37.13 1.35503969,38.93 1.37503969,40.47 C1.45503969,40.56 1.50503969,40.69 1.50503969,40.86 M8.06503969,65.27 C8.19503969,65.52 8.28503969,65.78 8.32503969,66.03 C8.73503969,63.19 9.17503969,60 9.53503969,57.1 C8.79503969,58.76 7.83503969,60.68 6.65503969,62.88 C6.07503969,63.96 5.83503969,64.7 6.18503969,65.67 C6.46503969,66.48 7.08503969,65.85 6.84503969,65.66 C6.25503969,65.16 7.00503969,64.28 7.59503969,64.77 C7.69503969,64.86 7.78503969,64.95 7.84503969,65.04 C7.92503969,65.09 8.00503969,65.17 8.06503969,65.28 M9.76503969,29.86 C9.78503969,28.92 9.76503969,27.73 9.58503969,27.5 C9.57503969,27.5 9.49503969,27.45 9.42503969,27.45 C9.36503969,27.45 9.04503969,27.68 9.26503969,28.06 C9.64503969,28.73 8.62503969,29.3 8.25503969,28.63 C8.08503969,28.33 8.01503969,28.03 8.02503969,27.75 C7.93503969,28.1 7.85503969,28.44 7.75503969,28.79 C6.69503969,32.5 2.76503969,30.32 3.51503969,27.79 C3.45503969,27.44 3.57503969,27.05 4.02503969,26.67 C4.60503969,26.18 5.33503969,27.02 4.80503969,27.53 C4.81503969,27.62 4.80503969,27.71 4.76503969,27.81 C4.88503969,28.01 5.24503969,28.14 5.43503969,27.58 C5.77503969,26.62 4.96503969,25.83 4.57503969,25.05 C3.94503969,23.8 2.73503969,22.11 1.78503969,20.42 C2.11503969,23.67 2.69503969,28.2 3.57503969,32.44 C4.40503969,36.47 4.63503969,38 5.13503969,39.76 C5.49503969,41.04 6.24503969,41.08 6.72503969,40.66 C6.10503969,40.77 5.43503969,40.49 5.08503969,39.49 C3.67503969,35.48 9.73503969,32.05 9.73503969,30.06 C9.73503969,29.99 9.73503969,29.93 9.76503969,29.87 M1.35503969,64.18 C1.32503969,66.14 4.31503969,72.04 5.32503969,74.03 C5.90503969,75.17 6.38503969,76.28 5.86503969,77.74 C4.92503969,80.41 1.60503969,77.94 3.35503969,76.46 C3.94503969,75.96 4.69503969,76.85 4.10503969,77.34 C3.87503969,77.54 4.48503969,78.17 4.77503969,77.36 C5.11503969,76.38 4.84503969,75.68 4.28503969,74.55 C3.58503969,73.17 2.20503969,70.46 1.24503969,68.04 C1.31503969,69.97 1.96503969,77.41 3.36503969,84.16 C4.19503969,88.19 4.42503969,89.72 4.92503969,91.48 C5.58503969,93.78 7.47503969,92.09 6.83503969,90.87 C6.46503969,90.19 7.49503969,89.65 7.85503969,90.33 C9.29503969,93.03 4.93503969,95.74 3.80503969,91.79 C3.29503969,90.01 3.06503969,88.46 2.21503969,84.39 C0.725039685,77.16 0.0750396851,69.17 0.0650396851,67.78 C-0.0649603149,65.53 0.0350396851,63.35 0.0650396851,62.47 C0.105039685,61.42 0.585039685,60.74 1.51503969,60.74 C2.44503969,60.74 3.34503969,61.92 2.69503969,63.08 C2.31503969,63.75 1.30503969,63.18 1.68503969,62.5 C1.89503969,62.12 1.57503969,61.89 1.51503969,61.89 C1.44503969,61.89 1.37503969,61.93 1.35503969,61.94 C1.23503969,62.08 1.18503969,62.82 1.16503969,63.71 C1.27503969,63.81 1.34503969,63.96 1.33503969,64.15" id="Fill-189"></path>
                </g>
                <g id="Group-240" transform="translate(2.330000, 2.320000)">
                    <path d="M20.47,66.47 L20.47,112.49 C20.47,115.58 17.96,118.09 14.87,118.09 C11.78,118.09 9.29,115.59 9.29,112.51 L9.29,30.07 C9.29,18.5 18.44,9.3 29.82,9.3 C41.2,9.3 50.68,18.63 50.68,30.05 C50.68,30.05 50.68,112.5 50.7,112.5 C50.7,115.59 48.15,118.1 45.06,118.1 C41.97,118.1 39.47,115.6 39.47,112.52 C39.44,112.52 39.44,71.6 39.44,71.6 C39.44,66.06 42.18,59.71 49.56,52.95 L49.56,39.22 C48.06,42.22 42.43,45.1 39.68,49.97 C39.49,50.2 38.52,51.56 38.61,49.53 C39.73,45.27 41.59,43.15 42.43,37.27 C43.45,29.9 41.63,21.7 40.03,19.85 C39.59,26.56 34.55,41.19 30.88,46.18 C30.35,46.9 29.82,46.97 29.78,46.42 C29.83,36.91 23.96,31.97 20.04,27.96 C17.38,24.68 16.35,22.84 16.35,22.84 C16.35,22.84 11.44,26.02 11.24,26.23 C11.84,30.56 16.81,35.26 19.86,39.73 C22.13,43.41 22.83,47.31 21.01,48.87 C19.75,49.95 18.19,49.03 16.62,47.75 C13.69,45.38 10.8,40.99 10.4,40.46 L10.4,55.62 C13.27,60.74 19.86,59.92 20.47,66.48" id="Fill-192" fill="#004C3F"></path>
                    <path d="M18.62,15.61 C18.67,16.27 20.26,11.05 25.43,7.36 C30.6,3.68 34.14,2.75 38.08,2.04 C34.45,3.89 27.38,6.19 22.72,14.64 C22.29,15.44 20.88,17.46 20.06,18.89" id="Stroke-194" stroke="#D8127E" stroke-width="0.35"></path>
                    <path d="M18.72,18.79 C20.77,17.63 24.6,15.46 29.32,14.54 C34.54,13.52 39.04,14.18 42.84,15.47 C34.85,14.69 29.94,15.72 23.28,18.75 C22.45,19.13 21.84,19.89 20.1,20.64 C18.58,21.3 16.76,19.9 18.72,18.8" id="Fill-196" fill="#FFFFFE"></path>
                    <path d="M18.72,18.79 C20.77,17.63 24.6,15.46 29.32,14.54 C34.54,13.52 39.04,14.18 42.84,15.47 C34.85,14.69 29.94,15.72 23.28,18.75 C22.45,19.13 21.84,19.89 20.1,20.64 C18.58,21.3 16.76,19.9 18.72,18.8 L18.72,18.79 Z" id="Stroke-198" stroke="#004C3F" stroke-width="0.35"></path>
                    <path d="M17.87,22.74 C17.87,22.74 27.78,31.85 25.98,42.31 C30.87,35.34 25.53,28.02 24.23,26.05 C22.93,24.08 21.02,22.31 20.07,21.7 C22.9,22.45 31.64,26.01 37.28,35.33 C36.46,29.39 29.51,21.37 23.82,19.84 C19.94,18.79 18.97,19.28 18.02,18.67 C17.08,18.06 17.14,15.9 15.04,12.08 C12.95,8.25 8.71,10.48 5.75,13.8 C7.27,12.74 11.57,9.49 12.61,13.73 C12.71,14.14 12.62,13.96 12.85,14.16 C13.5,14.75 14.8,15.17 15.34,15.75 C16.68,17.17 17.75,18.65 17.6,18.99 C17.25,17.77 16.88,17.15 15.33,15.75 C13.79,14.36 7.84,10.17 1.66,21.22 C4.56,17.56 7.61,14.78 11.16,15.83 C13.48,16.54 14.96,20.35 14.66,21.36 C13.64,21.69 11.7,21.86 9.49,24.71 C6.83,28.15 5.76,32.98 6.86,37.07 C7.97,41.16 9.05,43.03 10.5,44.56 C9.97,43.56 9.24,41.97 8.84,40.03 C8.12,36.47 8.56,32.25 10.12,29.24 C12.53,24.57 15.39,23.92 17.13,23.2 C17.65,22.98 17.53,22.4 17.85,22.75" id="Fill-200" fill="#FFFFFE"></path>
                    <path d="M17.87,22.74 C17.87,22.74 27.78,31.85 25.98,42.31 C30.87,35.34 25.53,28.02 24.23,26.05 C22.93,24.08 21.02,22.31 20.07,21.7 C22.9,22.45 31.64,26.01 37.28,35.33 C36.46,29.39 29.51,21.37 23.82,19.84 C19.94,18.79 18.97,19.28 18.02,18.67 C17.08,18.06 17.14,15.9 15.04,12.08 C12.95,8.25 8.71,10.48 5.75,13.8 C7.27,12.74 11.57,9.49 12.61,13.73 C12.71,14.14 12.62,13.96 12.85,14.16 C13.5,14.75 14.8,15.17 15.34,15.75 C16.68,17.17 17.75,18.65 17.6,18.99 C17.25,17.77 16.88,17.15 15.33,15.75 C13.79,14.36 7.84,10.17 1.66,21.22 C4.56,17.56 7.61,14.78 11.16,15.83 C13.48,16.54 14.96,20.35 14.66,21.36 C13.64,21.69 11.7,21.86 9.49,24.71 C6.83,28.15 5.76,32.98 6.86,37.07 C7.97,41.16 9.05,43.03 10.5,44.56 C9.97,43.56 9.24,41.97 8.84,40.03 C8.12,36.47 8.56,32.25 10.12,29.24 C12.53,24.57 15.39,23.92 17.13,23.2 C17.65,22.98 17.53,22.4 17.85,22.75 L17.87,22.74 Z" id="Stroke-202" stroke="#004C3F" stroke-width="0.35"></path>
                    <path d="M18.62,15.61 C18.67,16.27 20.26,11.05 25.43,7.36 C30.6,3.68 34.14,2.75 38.08,2.04 C34.45,3.89 27.38,6.19 22.72,14.64 C22.29,15.44 20.88,17.46 20.06,18.89 C19.24,20.33 18.58,14.95 18.63,15.61" id="Fill-204" fill="#FFFFFE"></path>
                    <path d="M18.62,15.61 C18.67,16.27 20.26,11.05 25.43,7.36 C30.6,3.68 34.14,2.75 38.08,2.04 C34.45,3.89 27.38,6.19 22.72,14.64 C22.29,15.44 20.88,17.46 20.06,18.89 C19.24,20.33 18.58,14.95 18.63,15.61 L18.62,15.61 Z" id="Stroke-206" stroke="#004C3F" stroke-width="0.35"></path>
                    <path d="M19.03,16.17 C20.77,14.58 22.6,12.12 28.58,10 C34.57,7.88 38.22,7.97 42.21,8.37 C37.46,8.79 31.51,10.17 23.88,15.96 C22.6,16.94 21.43,18.47 20.66,19.86 C19.86,21.3 17.36,17.68 19.02,16.17" id="Fill-208" fill="#FFFFFE"></path>
                    <path d="M19.03,16.17 C20.77,14.58 22.6,12.12 28.58,10 C34.57,7.88 38.22,7.97 42.21,8.37 C37.46,8.79 31.51,10.17 23.88,15.96 C22.6,16.94 21.43,18.47 20.66,19.86 C19.86,21.3 17.36,17.68 19.02,16.17 L19.03,16.17 Z" id="Stroke-210" stroke="#004C3F" stroke-width="0.35"></path>
                    <path d="M16.32,23.8 C16.32,23.8 21.33,35.28 16.75,43.92 C22.48,41.01 21.68,30.5 21.22,28.19 C20.76,25.88 20.32,23.77 19.66,22.85 C22,24.61 27.18,28.69 30.27,39.17 C31.21,32.58 27.37,26.4 23.16,22.27 C21.33,20.48 21.44,20.57 20.8,19.65 C20.16,18.73 22.06,16.4 21.55,12.06 C21.05,7.73 18.27,6.52 15.68,5.14 C17.11,6.58 18.84,7.59 18.91,12.13 C18.99,16.72 17.69,16.43 17.27,16.84 C16.86,17.25 16.71,17.15 15.94,17.04 C15.49,16.98 14.99,16.92 12.92,16.73 C10.85,16.55 4.35,18.41 0.64,26.93 C2.89,23.55 5.45,21.04 8.88,20 C11.13,19.32 12.54,18.96 14.07,19.57 C13.01,19.49 11.16,19.62 8.05,21.43 C4.3,23.62 1.28,27.68 0.78,31.89 C0.27,36.1 0.78,38.25 1.55,40.21 C1.44,39.09 1.35,37.33 1.71,35.38 C2.38,31.81 4.09,27.58 6.66,25.36 C10.38,22.16 12.96,22.26 14.09,22.36 C15.27,22.47 15.88,22.88 16.3,23.79" id="Fill-212" fill="#FFFFFE"></path>
                    <path d="M16.32,23.8 C16.32,23.8 21.33,35.28 16.75,43.92 C22.48,41.01 21.68,30.5 21.22,28.19 C20.76,25.88 20.32,23.77 19.66,22.85 C22,24.61 27.18,28.69 30.27,39.17 C31.21,32.58 27.37,26.4 23.16,22.27 C21.33,20.48 21.44,20.57 20.8,19.65 C20.16,18.73 22.06,16.4 21.55,12.06 C21.05,7.73 18.27,6.52 15.68,5.14 C17.11,6.58 18.84,7.59 18.91,12.13 C18.99,16.72 17.69,16.43 17.27,16.84 C16.86,17.25 16.71,17.15 15.94,17.04 C15.49,16.98 14.99,16.92 12.92,16.73 C10.85,16.55 4.35,18.41 0.64,26.93 C2.89,23.55 5.45,21.04 8.88,20 C11.13,19.32 12.54,18.96 14.07,19.57 C13.01,19.49 11.16,19.62 8.05,21.43 C4.3,23.62 1.28,27.68 0.78,31.89 C0.27,36.1 0.78,38.25 1.55,40.21 C1.44,39.09 1.35,37.33 1.71,35.38 C2.38,31.81 4.09,27.58 6.66,25.36 C10.38,22.16 12.96,22.26 14.09,22.36 C15.27,22.47 15.88,22.88 16.3,23.79 L16.32,23.8 Z" id="Stroke-214" stroke="#004C3F" stroke-width="0.47"></path>
                    <path d="M26.83,30.95 C26.09,31.82 25.35,32.77 24.61,33.8 C24.87,32.67 25.44,31.34 26.23,29.95 C26.43,30.27 26.62,30.6 26.82,30.95 M41.28,20.93 C41.28,20.93 31.86,30.55 34.21,40.9 C28.96,34.19 33.92,26.6 35.1,24.57 C36.29,22.53 39.59,22.01 40.52,21.35 C38.28,22.08 33.47,23.93 28.38,29.23 C28.13,28.75 27.87,28.29 27.6,27.83 C29.97,24.49 33.4,21.27 36.83,20.15 C40.65,18.91 40.01,17.54 40.92,16.87 C41.83,16.21 41.68,14.65 43.56,10.72 C45.45,6.78 49.78,8.21 52.91,11.36 C51.34,10.38 47.9,8.42 46.06,11.64 C45.85,12.01 46.06,11.88 45.84,12.09 C45.79,12.14 45.74,12.18 45.69,12.23 C48.28,11.01 52.58,10.92 57.39,18.56 C54.3,15.06 51.11,12.44 47.62,13.68 C45.33,14.5 44.06,18.38 44.41,19.38 C45.44,19.65 47.39,19.72 49.75,22.45 C52.58,25.74 53.91,30.51 53.02,34.65 C52.12,38.8 51.14,40.72 49.78,42.32 C50.26,41.3 50.91,39.67 51.2,37.7 C51.73,34.11 51.08,29.93 49.37,27 C46.72,22.46 43.83,21.97 42.04,21.33 C41.52,21.14 41.6,20.55 41.3,20.91 M45.7,12.22 C44.93,12.58 44.31,13.03 43.87,13.42 C44.42,13.01 45.2,12.65 45.7,12.22 M43.87,13.42 C43.7,13.54 43.56,13.66 43.45,13.8 L43.36,13.91 L43.47,13.8 C43.58,13.69 43.72,13.56 43.88,13.42 M43.37,13.91 C42.29,15 41.85,15.63 41.58,16.44 C41.91,15.8 42.58,14.85 43.37,13.91 M41.58,16.44 C41.41,16.79 41.33,17.04 41.38,17.16 C41.45,16.9 41.51,16.67 41.58,16.44" id="Fill-216" fill="#FFFFFE"></path>
                    <path d="M26.83,30.95 C26.09,31.82 25.35,32.77 24.61,33.8 C24.87,32.67 25.44,31.34 26.23,29.95 C26.43,30.27 26.62,30.6 26.82,30.95 L26.83,30.95 Z M41.29,20.93 C41.29,20.93 31.87,30.55 34.22,40.9 C28.97,34.19 33.93,26.6 35.11,24.57 C36.3,22.53 39.6,22.01 40.53,21.35 C38.29,22.08 33.48,23.93 28.39,29.23 C28.14,28.75 27.88,28.29 27.61,27.83 C29.98,24.49 33.41,21.27 36.84,20.15 C40.66,18.91 40.02,17.54 40.93,16.87 C41.84,16.21 41.69,14.65 43.57,10.72 C45.46,6.78 49.79,8.21 52.92,11.36 C51.35,10.38 47.91,8.42 46.07,11.64 C45.86,12.01 46.07,11.88 45.85,12.09 C45.8,12.14 45.75,12.18 45.7,12.23 C48.29,11.01 52.59,10.92 57.4,18.56 C54.31,15.06 51.12,12.44 47.63,13.68 C45.34,14.5 44.07,18.38 44.42,19.38 C45.45,19.65 47.4,19.72 49.76,22.45 C52.59,25.74 53.92,30.51 53.03,34.65 C52.13,38.8 51.15,40.72 49.79,42.32 C50.27,41.3 50.92,39.67 51.21,37.7 C51.74,34.11 51.09,29.93 49.38,27 C46.73,22.46 43.84,21.97 42.05,21.33 C41.53,21.14 41.61,20.55 41.31,20.91 L41.29,20.93 Z M45.69,12.24 C44.92,12.6 44.3,13.05 43.86,13.44 C44.41,13.03 45.19,12.67 45.69,12.24 Z M43.86,13.44 C43.69,13.56 43.55,13.68 43.44,13.82 L43.35,13.93 L43.46,13.82 C43.57,13.71 43.71,13.58 43.87,13.44 L43.86,13.44 Z M43.35,13.93 C42.27,15.02 41.83,15.65 41.56,16.46 C41.89,15.82 42.56,14.87 43.35,13.93 Z M41.56,16.46 C41.39,16.81 41.31,17.06 41.36,17.18 C41.43,16.92 41.49,16.69 41.56,16.46 Z" id="Stroke-218" stroke="#004C3F" stroke-width="0.35"></path>
                    <path d="M39.65,14.09 C39.67,14.87 39.87,18.64 38.93,17.59 C37.83,16.36 36.03,14.67 35.45,13.99 C34.4859556,12.8755417 33.4288071,11.8451564 32.29,10.91 C33.31,10.46 34.3,10.08 35.24,9.77 C38.09,11.94 39.51,14.22 39.65,14.15 L39.65,14.09 M30.29,9.44 C25.46,6.26 20.69,5.63 17.79,4.85 C21.79,4.74 25.45,4.9 31.27,7.43 C32.09,7.78 32.85,8.19 33.54,8.61 C32.438816,8.82198376 31.3504298,9.09574963 30.28,9.43" id="Fill-220" fill="#FFFFFE"></path>
                    <path d="M39.65,14.09 C39.67,14.87 39.87,18.64 38.93,17.59 C37.83,16.36 36.03,14.67 35.45,13.99 C34.4859556,12.8755417 33.4288071,11.8451564 32.29,10.91 C33.31,10.46 34.3,10.08 35.24,9.77 C38.09,11.94 39.51,14.22 39.65,14.15 L39.65,14.09 L39.65,14.09 Z M30.29,9.44 C25.46,6.26 20.69,5.63 17.79,4.85 C21.79,4.74 25.45,4.9 31.27,7.43 C32.09,7.78 32.85,8.19 33.54,8.61 C32.438816,8.82198376 31.3504298,9.09574963 30.28,9.43 L30.29,9.44 Z" id="Stroke-222" stroke="#004C3F" stroke-width="0.35"></path>
                    <path d="M43.53,15.49 C42.94,14.53 42.73,14.44 42.45,10.08 C42.17,5.73 38.97,4.12 36.46,2.61 C37.82,4.13 39.97,5.48 39.81,10.01 C39.65,14.59 40.45,15.22 40,16.28 C39.89,16.57 30.6,15.48 25.7,21.4 C33.13,17.54 34.79,19.15 37.49,18.82 C37.93,19.6 38.23,19.2 36.5,21.08 C32.51,25.42 28.52,31.54 29.8,38.07 C32.34,27.45 38.12,22.7 40.36,20.82 C39.75,21.77 39.08,24.55 38.75,26.89 C38.41,29.22 37.68,39.51 43.56,42.11 C38.53,33.73 43.43,22.25 43.43,22.25 C43.79,21.31 44.38,20.87 45.55,20.7 C46.67,20.54 49.25,20.3 53.13,23.3 C55.82,25.39 57.75,29.52 58.61,33.05 C59.07,34.98 59.08,36.73 59.02,37.86 C59.68,35.86 59.55,34.22 58.82,30.04 C58.1,25.86 54.72,21.77 50.86,19.78 C47.66,18.13 45.57,18.36 44.51,18.5 C46.01,17.81 48.36,17.5 50.64,18.06 C54.12,18.92 56.24,20.82 58.66,24.08 C54.51,15.77 48.48,14.73 46.42,15.01 C44.36,15.31 43.87,15.39 43.43,15.48 L43.53,15.48 L43.53,15.49 Z" id="Fill-224" fill="#FFFFFE"></path>
                    <path d="M43.53,15.49 C42.94,14.53 42.73,14.44 42.45,10.08 C42.17,5.73 38.97,4.12 36.46,2.61 C37.82,4.13 39.97,5.48 39.81,10.01 C39.65,14.59 40.45,15.22 40,16.28 C39.89,16.57 30.6,15.48 25.7,21.4 C33.13,17.54 34.79,19.15 37.49,18.82 C37.93,19.6 38.23,19.2 36.5,21.08 C32.51,25.42 28.52,31.54 29.8,38.07 C32.34,27.45 38.12,22.7 40.36,20.82 C39.75,21.77 39.08,24.55 38.75,26.89 C38.41,29.22 37.68,39.51 43.56,42.11 C38.53,33.73 43.43,22.25 43.43,22.25 C43.79,21.31 44.38,20.87 45.55,20.7 C46.67,20.54 49.25,20.3 53.13,23.3 C55.82,25.39 57.75,29.52 58.61,33.05 C59.07,34.98 59.08,36.73 59.02,37.86 C59.68,35.86 59.55,34.22 58.82,30.04 C58.1,25.86 54.72,21.77 50.86,19.78 C47.66,18.13 45.57,18.36 44.51,18.5 C46.01,17.81 48.36,17.5 50.64,18.06 C54.12,18.92 56.24,20.82 58.66,24.08 C54.51,15.77 48.48,14.73 46.42,15.01 C44.36,15.31 43.87,15.39 43.43,15.48 L43.53,15.48 L43.53,15.49 Z" id="Stroke-226" stroke="#004C3F" stroke-width="0.47"></path>
                    <path d="M43.8,20.41 C44.5,22.66 45.96,25.36 45.34,31.68 C44.73,38.01 42.71,41.13 40.66,44.57 C42.29,40.09 43.96,34.27 41.92,24.91 C41.58,23.34 40.69,21.62 39.76,20.34 C38.79,19 43.12,18.27 43.79,20.41" id="Fill-228" fill="#FFFFFE"></path>
                    <path d="M43.8,20.41 C44.5,22.66 45.96,25.36 45.34,31.68 C44.73,38.01 42.71,41.13 40.66,44.57 C42.29,40.09 43.96,34.27 41.92,24.91 C41.58,23.34 40.69,21.62 39.76,20.34 C38.79,19 43.12,18.27 43.79,20.41 L43.8,20.41 Z" id="Stroke-230" stroke="#004C3F" stroke-width="0.35"></path>
                    <path d="M43.05,15.23 C42.45,14.27 42.24,14.18 41.97,9.83 C41.69,5.47 38.97,4.12 36.46,2.61 C37.82,4.13 39.49,5.22 39.33,9.76 C39.16,14.34 39.96,14.98 39.52,16.04 C39.4,16.32 30.6,15.49 25.71,21.41 C33.15,17.55 34.31,18.91 37.02,18.58 C37.46,19.36 37.76,18.96 36.03,20.84 C32.03,25.18 28.53,31.55 29.81,38.08 C32.35,27.46 37.64,22.46 39.89,20.58 C39.28,21.54 38.61,24.31 38.27,26.64 C37.94,28.97 37.69,39.51 43.57,42.12 C38.54,33.74 42.95,22.01 42.95,22.01 C43.31,21.07 43.91,20.63 45.08,20.46 C46.2,20.3 48.78,20.07 52.65,23.07 C55.34,25.15 57.27,29.29 58.12,32.82 C58.59,34.75 58.59,36.5 58.54,37.63 C59.2,35.63 59.6,33.46 58.87,29.28 C58.15,25.1 54.93,21.2 51.07,19.21 C47.87,17.56 45.1,18.13 44.04,18.26 C45.55,17.56 47.9,17.26 50.18,17.83 C53.66,18.69 55.77,20.58 58.2,23.84 C54.05,15.54 48.02,14.49 45.97,14.78 C43.91,15.07 43.07,15.25 43.07,15.25" id="Fill-232" fill="#FFFFFE"></path>
                    <path d="M43.05,15.23 C42.45,14.27 42.24,14.18 41.97,9.83 C41.69,5.47 38.97,4.12 36.46,2.61 C37.82,4.13 39.49,5.22 39.33,9.76 C39.16,14.34 39.96,14.98 39.52,16.04 C39.4,16.32 30.6,15.49 25.71,21.41 C33.15,17.55 34.31,18.91 37.02,18.58 C37.46,19.36 37.76,18.96 36.03,20.84 C32.03,25.18 28.53,31.55 29.81,38.08 C32.35,27.46 37.64,22.46 39.89,20.58 C39.28,21.54 38.61,24.31 38.27,26.64 C37.94,28.97 37.69,39.51 43.57,42.12 C38.54,33.74 42.95,22.01 42.95,22.01 C43.31,21.07 43.91,20.63 45.08,20.46 C46.2,20.3 48.78,20.07 52.65,23.07 C55.34,25.15 57.27,29.29 58.12,32.82 C58.59,34.75 58.59,36.5 58.54,37.63 C59.2,35.63 59.6,33.46 58.87,29.28 C58.15,25.1 54.93,21.2 51.07,19.21 C47.87,17.56 45.1,18.13 44.04,18.26 C45.55,17.56 47.9,17.26 50.18,17.83 C53.66,18.69 55.77,20.58 58.2,23.84 C54.05,15.54 48.02,14.49 45.97,14.78 C43.91,15.07 43.07,15.25 43.07,15.25 L43.05,15.23 Z" id="Stroke-234" stroke="#004C3F" stroke-width="0.47"></path>
                    <path d="M1.77635684e-15,30.07 C1.77635684e-15,13.46 13.21,0 29.82,0 C46.43,0 59.97,13.44 59.97,30.05 L59.97,121.35 L1.77635684e-15,121.35 L1.77635684e-15,30.07 Z M29.82,1.16 C45.79,1.16 58.81,14.08 58.81,30.04 L58.81,120.19 L1.15,120.19 L1.15,30.07 C1.15,14.09 13.87,1.16 29.82,1.16 Z" id="Fill-236" fill="#004C3F"></path>
                    <path d="M1.77635684e-15,30.07 C1.77635684e-15,13.46 13.21,0 29.82,0 C46.43,0 59.97,13.44 59.97,30.05 L59.97,121.35 L1.77635684e-15,121.35 L1.77635684e-15,30.07 Z M29.82,1.16 C45.79,1.16 58.81,14.08 58.81,30.04 L58.81,120.19 L1.15,120.19 L1.15,30.07 C1.15,14.09 13.87,1.16 29.82,1.16 Z" id="Stroke-238" stroke="#004C3F" stroke-width="0.09"></path>
                </g>
            </g>
            <path d="M91.52,48.33 L91.52,48.2 C93.18,47.34 94.5,45.93 94.5,43.66 C94.5,40.01 91.65,37.58 86.88,37.58 L74.18,37.58 L74.18,60.43 L87.43,60.43 C92.33,60.43 95.24,57.93 95.24,53.52 C95.24,50.86 93.51,49.23 91.53,48.34 L91.52,48.33 Z M81.22,42.6 L85.22,42.6 C86.76,42.6 87.56,43.4 87.56,44.62 C87.56,45.84 86.76,46.64 85.22,46.64 L81.22,46.64 L81.22,42.61 L81.22,42.6 Z M85.64,55.27 L81.22,55.27 L81.22,51.05 L85.64,51.05 C87.24,51.05 88.07,51.88 88.07,53.16 C88.07,54.44 87.24,55.27 85.64,55.27 Z M107.49,60.93 C113.57,60.93 118.18,58.18 118.18,52 L118.18,37.57 L111.14,37.57 L111.14,51.36 C111.14,54.02 109.89,55.42 107.49,55.42 C105.09,55.42 103.84,54.01 103.84,51.36 L103.84,37.57 L96.8,37.57 L96.8,52 C96.8,58.18 101.41,60.93 107.49,60.93 Z M127.62,53.19 L130.38,53.19 L134.24,60.42 L142.4,60.42 L137.52,52.26 C140.15,51.05 141.63,48.7 141.63,45.38 C141.63,40.39 138.27,37.57 132.7,37.57 L120.57,37.57 L120.57,60.42 L127.61,60.42 L127.61,53.19 L127.62,53.19 Z M127.62,42.85 L131.46,42.85 C133.48,42.85 134.47,43.84 134.47,45.38 C134.47,46.92 133.48,47.91 131.46,47.91 L127.62,47.91 L127.62,42.85 Z M149.73,46.66 L149.85,46.66 L157.02,60.42 L164.99,60.42 L164.99,37.58 L158.59,37.58 L158.59,50.98 L158.46,50.98 L151.42,37.58 L143.33,37.58 L143.33,60.42 L149.73,60.42 L149.73,46.66 Z M177.18,55.85 C175,55.85 173.37,54.79 173.24,52.59 L166.3,53.29 C166.68,58.35 171.48,60.94 177.12,60.94 C182.76,60.94 187.39,58.92 187.39,53.74 C187.39,48.2 183.29,47.21 179.68,46.28 L176.19,45.38 C174.78,45.03 173.79,44.68 173.79,43.72 C173.79,42.76 174.88,42.02 176.54,42.02 C178.75,42.02 179.77,43.08 179.9,44.64 L186.59,44.22 C185.98,39.48 182.01,37.05 176.86,37.05 C171.26,37.05 166.94,39.32 166.94,44.22 C166.94,49.12 170.78,50.14 174.2,51.07 L177.14,51.87 C179.28,52.45 180.21,52.83 180.21,54.01 C180.21,55.19 178.83,55.83 177.17,55.83 L177.18,55.85 Z M189.05,37.58 L196.09,37.58 L196.09,60.43 L189.05,60.43 L189.05,37.58 Z M220.6,49 C220.6,40.81 215.45,37.58 208.22,37.58 L198.49,37.58 L198.49,60.43 L208.22,60.43 C215.45,60.43 220.6,57.2 220.6,49.01 L220.6,49 Z M205.53,55.14 L205.53,42.85 L207.03,42.85 C210.97,42.85 213.43,43.84 213.43,48.99 C213.43,54.14 210.97,55.13 207.03,55.13 L205.53,55.13 L205.53,55.14 Z M240.38,54.98 L229.44,54.98 L229.44,51.3 L239.74,51.3 L239.74,46.25 L229.44,46.25 L229.44,42.86 L240.38,42.86 L240.38,37.58 L222.37,37.58 L222.37,60.42 L240.38,60.42 L240.38,54.98 L240.38,54.98 Z M74.82,70.01 L74.82,92.86 L78.33,92.86 L78.33,82.76 L89.93,82.76 L89.93,92.86 L93.44,92.86 L93.44,70.01 L89.93,70.01 L89.93,79.8 L78.33,79.8 L78.33,70.01 L74.82,70.01 L74.82,70.01 Z M98.08,70.01 L101.6,70.01 L101.6,92.86 L98.08,92.86 L98.08,70.01 Z M116.49,72.46 C119.48,72.46 121.72,73.96 122.89,76.77 L126.41,76.36 C124.9,72.07 121.15,69.51 116.49,69.51 C110.05,69.51 105.6,74.3 105.6,81.41 C105.6,88.52 110.05,93.37 116.49,93.37 C119.86,93.37 122.14,92.08 123.52,90.07 L123.52,92.86 L126.36,92.86 L126.36,81.25 L116.91,81.25 L116.91,84.2 L123.17,84.2 C123.17,87.34 120.71,90.4 116.49,90.4 C112,90.4 109.18,86.92 109.18,81.39 C109.18,75.86 112,72.45 116.49,72.45 L116.49,72.46 Z M149.41,92.86 L149.41,70.01 L145.89,70.01 L145.89,79.8 L134.3,79.8 L134.3,70.01 L130.78,70.01 L130.78,92.86 L134.3,92.86 L134.3,82.76 L145.89,82.76 L145.89,92.86 L149.41,92.86 L149.41,92.86 Z M178.5,86.66 C178.5,81.67 175.17,80.76 171.69,79.9 L167.76,79 C165.69,78.52 164.13,77.86 164.13,75.9 C164.13,73.83 165.94,72.35 168.85,72.35 C171.76,72.35 173.84,73.74 174.45,76.61 L177.97,76.33 C176.86,72.01 173.91,69.52 168.89,69.52 C164.15,69.52 160.56,72.05 160.56,76 C160.56,80.23 163.58,81.42 166.56,82.15 L170.73,83.17 C173.14,83.75 174.93,84.35 174.93,86.76 C174.93,89.17 172.8,90.54 169.71,90.54 C166.62,90.54 163.75,89.31 163.25,85.48 L159.76,85.83 C160.57,90.72 164.11,93.37 169.65,93.37 C174.53,93.37 178.52,91.13 178.52,86.66 L178.5,86.66 Z M192.39,72.46 C195.58,72.46 197.63,74.37 198.5,76.61 L201.93,75.86 C200.89,72.97 197.72,69.51 192.39,69.51 C186.04,69.51 181.63,74.08 181.63,81.41 C181.63,88.74 186.04,93.37 192.39,93.37 C198.35,93.37 201.54,89.17 202.35,85.45 L198.83,84.92 C198.15,87.75 196.21,90.41 192.4,90.41 C188,90.41 185.22,87.1 185.22,81.4 C185.22,75.7 188,72.46 192.4,72.46 L192.39,72.46 Z M209.5,70.01 L205.98,70.01 L205.98,92.86 L209.5,92.86 L209.5,82.76 L221.09,82.76 L221.09,92.86 L224.61,92.86 L224.61,70.01 L221.09,70.01 L221.09,79.8 L209.5,79.8 L209.5,70.01 L209.5,70.01 Z M239.33,69.5 C232.86,69.5 228.51,74.07 228.51,81.43 C228.51,88.79 232.86,93.36 239.33,93.36 C245.8,93.36 250.15,88.79 250.15,81.43 C250.15,74.07 245.8,69.5 239.33,69.5 Z M239.33,90.41 C234.9,90.41 232.09,87.1 232.09,81.43 C232.09,75.76 234.9,72.45 239.33,72.45 C243.76,72.45 246.57,75.76 246.57,81.43 C246.57,87.1 243.76,90.41 239.33,90.41 Z M264.22,69.5 C257.75,69.5 253.4,74.07 253.4,81.43 C253.4,88.79 257.75,93.36 264.22,93.36 C270.69,93.36 275.04,88.79 275.04,81.43 C275.04,74.07 270.69,69.5 264.22,69.5 Z M264.22,90.41 C259.79,90.41 256.98,87.1 256.98,81.43 C256.98,75.76 259.79,72.45 264.22,72.45 C268.65,72.45 271.46,75.76 271.46,81.43 C271.46,87.1 268.65,90.41 264.22,90.41 Z M282.46,89.81 L282.46,70.01 L278.94,70.01 L278.94,92.86 L294.95,92.86 L294.95,89.81 L282.46,89.81 L282.46,89.81 Z M84.23,100.56 L73.63,100.56 L73.33,102.27 L77.64,102.27 L75.69,113.41 L77.67,113.41 L79.62,102.27 L83.93,102.27 L84.23,100.56 L84.23,100.56 Z M83.22,113.41 L92.16,113.41 L92.46,111.7 L85.51,111.7 L86.22,107.61 L92.89,107.61 L93.19,105.98 L86.52,105.98 L87.17,102.22 L94.13,102.22 L94.42,100.56 L85.47,100.56 L83.22,113.41 L83.22,113.41 Z M109.18,100.56 L106.64,100.56 L100.27,106.26 L101.28,100.56 L99.3,100.56 L97.05,113.41 L99.03,113.41 L99.88,108.63 L102.02,106.75 L105.49,113.41 L107.68,113.41 L103.53,105.53 L109.18,100.56 L109.18,100.56 Z M118.23,100.56 L116.84,108.47 C116.39,111.01 115.03,112.01 112.97,112.01 C110.91,112.01 109.98,111.08 110.43,108.54 L111.82,100.56 L109.84,100.56 L108.41,108.67 C107.86,111.79 110.09,113.71 112.77,113.71 C115.92,113.71 118.16,112.32 118.78,108.75 L120.21,100.57 L118.23,100.57 L118.23,100.56 Z M137.52,100.56 L130.41,113.26 L128.07,108.26 C130.54,107.84 131.95,106.17 131.95,103.72 C131.95,101.78 130.3,100.56 128.08,100.56 L122.16,100.56 L119.91,113.42 L121.89,113.42 L122.77,108.36 L125.98,108.36 L128.31,113.42 L132.55,113.42 L134.4,109.97 L140.13,109.97 L140.84,113.42 L142.91,113.42 L139.99,100.56 L137.52,100.56 L137.52,100.56 Z M123.07,106.7 L123.87,102.23 L127.57,102.23 C129.16,102.23 129.94,102.86 129.94,103.99 C129.94,105.6 128.8,106.7 126.77,106.7 L123.07,106.7 L123.07,106.7 Z M135.3,108.31 L138.49,102.36 L138.56,102.36 L139.79,108.31 L135.3,108.31 L135.3,108.31 Z M155.21,100.27 C150.81,100.27 147.88,104.07 147.88,108.54 C147.88,111.76 149.99,113.7 152.98,113.7 C157.38,113.7 160.31,109.9 160.31,105.43 C160.31,102.21 158.2,100.27 155.21,100.27 Z M153.07,112.04 C151.05,112.04 149.9,110.79 149.9,108.59 C149.9,105.18 151.89,101.94 155.13,101.94 C157.15,101.94 158.3,103.19 158.3,105.39 C158.3,108.8 156.31,112.04 153.07,112.04 Z M179.44,100.56 L175.24,110.81 L175.17,110.81 L174.56,100.56 L172.28,100.56 L168.11,110.81 L168.04,110.81 L167.39,100.56 L165.45,100.56 L166.57,113.41 L168.81,113.41 L172.93,103.41 L173,103.41 L173.68,113.41 L175.96,113.41 L181.54,100.56 L179.44,100.56 L179.44,100.56 Z M185.26,100.56 L178.06,113.42 L180.29,113.42 L182.14,109.97 L187.87,109.97 L188.58,113.42 L190.65,113.42 L187.73,100.56 L185.26,100.56 Z M183.04,108.3 L186.23,102.35 L186.3,102.35 L187.53,108.3 L183.04,108.3 L183.04,108.3 Z M193.92,100.56 L191.67,113.41 L193.65,113.41 L195.91,100.56 L193.92,100.56 L193.92,100.56 Z M207.58,100.56 L202.45,110.48 L202.38,110.48 L200.73,100.56 L197.92,100.56 L195.67,113.41 L197.51,113.41 L199.26,103.38 L199.33,103.38 L201.18,113.41 L202.79,113.41 L208.12,103.38 L208.19,103.38 L206.44,113.41 L208.35,113.41 L210.6,100.56 L207.58,100.56 Z M216.49,100.56 L209.29,113.42 L211.52,113.42 L213.37,109.97 L219.1,109.97 L219.81,113.42 L221.88,113.42 L218.96,100.56 L216.49,100.56 Z M214.27,108.3 L217.46,102.35 L217.53,102.35 L218.76,108.3 L214.27,108.3 L214.27,108.3 Z M225.15,100.56 L222.9,113.41 L224.88,113.41 L227.13,100.56 L225.15,100.56 Z M238.95,103.72 C238.95,101.78 237.3,100.56 235.08,100.56 L229.16,100.56 L226.91,113.42 L228.89,113.42 L229.77,108.36 L232.98,108.36 L235.31,113.42 L237.49,113.42 L235.07,108.26 C237.54,107.84 238.95,106.17 238.95,103.72 L238.95,103.72 Z M233.76,106.7 L230.06,106.7 L230.86,102.23 L234.56,102.23 C236.15,102.23 236.93,102.86 236.93,103.99 C236.93,105.6 235.79,106.7 233.76,106.7 L233.76,106.7 Z M238.74,113.41 L240.72,113.41 L242.97,100.56 L240.99,100.56 L238.74,113.41 Z M243.51,109.11 L248.94,109.11 L249.23,107.43 L243.8,107.43 L243.51,109.11 Z M252.47,100.56 L250.22,113.41 L252.21,113.41 L254.46,100.56 L252.47,100.56 Z M266.27,103.72 C266.27,101.78 264.62,100.56 262.4,100.56 L256.48,100.56 L254.23,113.42 L256.21,113.42 L257.09,108.36 L260.3,108.36 L262.63,113.42 L264.81,113.42 L262.39,108.26 C264.86,107.84 266.27,106.17 266.27,103.72 L266.27,103.72 Z M261.08,106.7 L257.38,106.7 L258.18,102.23 L261.88,102.23 C263.47,102.23 264.25,102.86 264.25,103.99 C264.25,105.6 263.11,106.7 261.08,106.7 Z M266.06,113.41 L268.04,113.41 L270.29,100.56 L268.31,100.56 L266.06,113.41 Z" id="Shape" fill="#004C3F" fill-rule="nonzero"></path>
        </g>
    </g>
</svg>